<svg xmlns="http://www.w3.org/2000/svg" xmlns:xlink="http://www.w3.org/1999/xlink" preserveAspectRatio="xMidYMid" width="180" height="192" viewBox="0 0 180 192">
  <defs>
    <style>

      .cls-2 {
        fill: #b2d179;
      }
    </style>
  </defs>
  <path d="M139.647,-0.006 C139.647,-0.006 179.797,40.144 179.797,40.144 C179.797,40.144 126.170,91.123 126.170,91.123 C117.505,100.269 133.998,116.750 113.773,139.180 C101.777,152.483 65.642,152.259 46.668,168.514 C32.979,180.241 20.908,188.456 17.309,191.756 C12.904,187.579 10.053,184.237 10.053,184.237 C10.053,184.237 59.589,128.974 63.594,125.261 C66.179,122.865 70.216,127.269 75.542,122.528 C78.626,119.783 80.503,114.282 76.540,110.539 C73.840,107.990 67.944,107.647 64.605,111.297 C59.739,116.617 65.200,120.679 61.582,123.599 C57.339,127.022 7.376,181.784 7.376,181.784 C7.376,181.784 0.015,173.084 0.015,173.084 C0.015,173.084 16.387,152.410 20.982,147.210 C37.935,128.027 23.624,97.175 48.418,70.256 C64.032,53.304 85.222,66.018 89.683,61.111 C94.144,56.204 139.647,-0.006 139.647,-0.006 Z" id="path-1" class="cls-2" fill-rule="evenodd"/>
</svg>
