<svg
 xmlns="http://www.w3.org/2000/svg"
 xmlns:xlink="http://www.w3.org/1999/xlink"
 width="26" height="26">
<path fill-rule="evenodd"  fill="rgb(52, 154, 0)"
 d="M18.862,13.517 C17.648,14.799 19.771,17.576 17.125,20.250 C15.360,22.034 12.487,23.712 7.755,24.422 C4.883,24.853 2.810,24.888 1.800,24.249 C0.794,23.612 0.572,22.787 0.516,22.271 C1.111,22.559 2.488,23.418 4.125,21.375 C5.762,19.332 4.495,14.365 7.969,10.594 C10.156,8.219 13.125,10.000 13.750,9.312 C14.375,8.625 20.750,0.750 20.750,0.750 L26.375,6.375 L18.862,13.517 ZM13.827,10.363 C13.082,10.765 10.598,9.251 8.604,11.416 C5.437,14.854 6.726,19.053 5.418,21.049 C4.832,21.943 3.639,23.159 3.003,23.179 C3.054,23.649 4.041,23.782 5.093,23.813 C6.183,23.846 8.276,23.485 9.788,23.040 C13.154,22.049 15.285,20.994 16.472,19.416 C18.448,16.791 16.715,14.804 17.759,13.542 L24.897,6.351 L20.775,2.227 C20.775,2.227 14.585,9.955 13.827,10.363 Z"/>
</svg>