<svg xmlns="http://www.w3.org/2000/svg" xmlns:xlink="http://www.w3.org/1999/xlink" preserveAspectRatio="xMidYMid" width="23" height="22" viewBox="0 0 23 22">
  <defs>
    <style>

      .cls-2 {
        fill: #339900;
      }
    </style>
  </defs>
  <path d="M23.000,22.010 C23.000,22.010 -0.010,22.000 -0.010,22.000 C-0.010,22.000 0.000,-0.010 0.000,-0.010 C0.000,-0.010 13.979,-0.000 13.979,-0.000 C13.979,-0.000 13.979,5.396 13.979,5.396 C13.979,5.396 15.958,7.073 15.958,7.073 C15.958,7.073 15.979,10.010 15.979,10.010 C15.979,10.010 18.063,10.000 18.063,10.000 C18.063,10.000 18.000,4.000 18.000,4.000 C18.000,4.000 20.979,3.979 20.979,3.979 C20.979,3.979 20.990,10.594 20.990,10.594 C20.990,10.594 23.010,12.260 23.010,12.260 C23.010,12.260 23.000,22.010 23.000,22.010 ZM22.031,12.969 C22.031,12.969 20.281,11.094 20.281,11.094 C20.281,11.094 20.250,4.969 20.250,4.969 C20.250,4.969 18.937,4.969 18.937,4.969 C18.937,4.969 19.031,11.000 19.031,11.000 C19.031,11.000 14.938,11.000 14.938,11.000 C14.938,11.000 15.031,7.844 15.031,7.844 C15.031,7.844 13.125,6.000 13.125,6.000 C13.125,6.000 13.000,1.000 13.000,1.000 C13.000,1.000 1.000,1.000 1.000,1.000 C1.000,1.000 0.969,21.750 0.969,21.750 C0.969,21.750 22.031,21.719 22.031,21.719 C22.031,21.719 22.031,12.969 22.031,12.969 ZM6.937,4.938 C6.937,4.938 2.812,4.938 2.812,4.938 C2.812,4.938 2.812,4.063 2.812,4.063 C2.812,4.063 6.937,4.063 6.937,4.063 C6.937,4.063 6.937,4.938 6.937,4.938 ZM6.937,6.937 C6.937,6.937 2.812,6.937 2.812,6.937 C2.812,6.937 2.812,6.062 2.812,6.062 C2.812,6.062 6.937,6.062 6.937,6.062 C6.937,6.062 6.937,6.937 6.937,6.937 ZM6.937,8.937 C6.937,8.937 2.812,8.937 2.812,8.937 C2.812,8.937 2.812,8.062 2.812,8.062 C2.812,8.062 6.937,8.062 6.937,8.062 C6.937,8.062 6.937,8.937 6.937,8.937 ZM6.937,10.938 C6.937,10.938 2.812,10.938 2.812,10.938 C2.812,10.938 2.812,10.063 2.812,10.063 C2.812,10.063 6.937,10.063 6.937,10.063 C6.937,10.063 6.937,10.938 6.937,10.938 ZM6.937,12.938 C6.937,12.938 2.812,12.938 2.812,12.938 C2.812,12.938 2.812,12.063 2.812,12.063 C2.812,12.063 6.937,12.063 6.937,12.063 C6.937,12.063 6.937,12.938 6.937,12.938 ZM6.937,14.937 C6.937,14.937 2.812,14.937 2.812,14.937 C2.812,14.937 2.812,14.062 2.812,14.062 C2.812,14.062 6.937,14.062 6.937,14.062 C6.937,14.062 6.937,14.937 6.937,14.937 ZM6.937,16.938 C6.937,16.938 2.812,16.938 2.812,16.938 C2.812,16.938 2.812,16.063 2.812,16.063 C2.812,16.063 6.937,16.063 6.937,16.063 C6.937,16.063 6.937,16.938 6.937,16.938 ZM6.937,18.938 C6.937,18.938 2.812,18.938 2.812,18.938 C2.812,18.938 2.812,18.063 2.812,18.063 C2.812,18.063 6.937,18.063 6.937,18.063 C6.937,18.063 6.937,18.938 6.937,18.938 ZM6.937,20.938 C6.937,20.938 2.812,20.938 2.812,20.938 C2.812,20.938 2.812,20.062 2.812,20.062 C2.812,20.062 6.937,20.062 6.937,20.062 C6.937,20.062 6.937,20.938 6.937,20.938 ZM2.844,2.062 C2.844,2.062 6.969,2.062 6.969,2.062 C6.969,2.062 6.969,2.937 6.969,2.937 C6.969,2.937 2.844,2.937 2.844,2.937 C2.844,2.937 2.844,2.062 2.844,2.062 ZM12.125,4.938 C12.125,4.938 7.937,4.938 7.937,4.938 C7.937,4.938 7.937,4.063 7.937,4.063 C7.937,4.063 12.125,4.063 12.125,4.063 C12.125,4.063 12.125,4.938 12.125,4.938 ZM12.125,6.937 C12.125,6.937 7.937,6.937 7.937,6.937 C7.937,6.937 7.937,6.062 7.937,6.062 C7.937,6.062 12.125,6.062 12.125,6.062 C12.125,6.062 12.125,6.937 12.125,6.937 ZM12.125,8.937 C12.125,8.937 7.937,8.937 7.937,8.937 C7.937,8.937 7.937,8.062 7.937,8.062 C7.937,8.062 12.125,8.062 12.125,8.062 C12.125,8.062 12.125,8.937 12.125,8.937 ZM12.125,10.938 C12.125,10.938 7.937,10.938 7.937,10.938 C7.937,10.938 7.937,10.063 7.937,10.063 C7.937,10.063 12.125,10.063 12.125,10.063 C12.125,10.063 12.125,10.938 12.125,10.938 ZM12.125,12.938 C12.125,12.938 7.937,12.938 7.937,12.938 C7.937,12.938 7.937,12.063 7.937,12.063 C7.937,12.063 12.125,12.063 12.125,12.063 C12.125,12.063 12.125,12.938 12.125,12.938 ZM12.125,14.937 C12.125,14.937 7.937,14.937 7.937,14.937 C7.937,14.937 7.937,14.062 7.937,14.062 C7.937,14.062 12.125,14.062 12.125,14.062 C12.125,14.062 12.125,14.937 12.125,14.937 ZM12.125,16.938 C12.125,16.938 7.937,16.938 7.937,16.938 C7.937,16.938 7.937,16.063 7.937,16.063 C7.937,16.063 12.125,16.063 12.125,16.063 C12.125,16.063 12.125,16.938 12.125,16.938 ZM12.125,18.938 C12.125,18.938 7.937,18.938 7.937,18.938 C7.937,18.938 7.937,18.063 7.937,18.063 C7.937,18.063 12.125,18.063 12.125,18.063 C12.125,18.063 12.125,18.938 12.125,18.938 ZM12.125,20.938 C12.125,20.938 7.937,20.938 7.937,20.938 C7.937,20.938 7.937,20.062 7.937,20.062 C7.937,20.062 12.125,20.062 12.125,20.062 C12.125,20.062 12.125,20.938 12.125,20.938 ZM7.969,2.062 C7.969,2.062 12.156,2.062 12.156,2.062 C12.156,2.062 12.156,2.937 12.156,2.937 C12.156,2.937 7.969,2.937 7.969,2.937 C7.969,2.937 7.969,2.062 7.969,2.062 ZM16.000,14.969 C16.000,14.969 14.969,14.969 14.969,14.969 C14.969,14.969 14.969,12.031 14.969,12.031 C14.969,12.031 16.000,12.031 16.000,12.031 C16.000,12.031 16.000,14.969 16.000,14.969 ZM16.000,18.969 C16.000,18.969 14.969,18.969 14.969,18.969 C14.969,18.969 14.969,16.031 14.969,16.031 C14.969,16.031 16.000,16.031 16.000,16.031 C16.000,16.031 16.000,18.969 16.000,18.969 ZM18.000,14.969 C18.000,14.969 16.969,14.969 16.969,14.969 C16.969,14.969 16.969,12.031 16.969,12.031 C16.969,12.031 18.000,12.031 18.000,12.031 C18.000,12.031 18.000,14.969 18.000,14.969 ZM18.000,18.969 C18.000,18.969 16.969,18.969 16.969,18.969 C16.969,18.969 16.969,16.031 16.969,16.031 C16.969,16.031 18.000,16.031 18.000,16.031 C18.000,16.031 18.000,18.969 18.000,18.969 ZM20.000,14.969 C20.000,14.969 18.969,14.969 18.969,14.969 C18.969,14.969 18.969,12.031 18.969,12.031 C18.969,12.031 20.000,12.031 20.000,12.031 C20.000,12.031 20.000,14.969 20.000,14.969 ZM20.000,18.969 C20.000,18.969 18.969,18.969 18.969,18.969 C18.969,18.969 18.969,16.031 18.969,16.031 C18.969,16.031 20.000,16.031 20.000,16.031 C20.000,16.031 20.000,18.969 20.000,18.969 Z" id="path-1" class="cls-2" fill-rule="evenodd"/>
</svg>
