<svg xmlns="http://www.w3.org/2000/svg" xmlns:xlink="http://www.w3.org/1999/xlink" preserveAspectRatio="xMidYMid" width="23" height="22" viewBox="0 0 23 22">
  <defs>
    <style>

      .cls-2 {
        fill: #339900;
        opacity: 0.5;
      }
    </style>
  </defs>
  <path d="M-0.010,22.000 C-0.010,22.000 0.000,-0.010 0.000,-0.010 C0.000,-0.010 13.010,-0.000 13.010,-0.000 C13.010,-0.000 13.010,5.396 13.010,5.396 C13.010,5.396 12.991,10.336 12.991,10.336 C12.991,10.336 15.078,8.956 15.078,8.956 C15.078,8.956 15.078,6.306 15.078,6.306 C15.078,6.306 15.958,7.073 15.958,7.073 C15.958,7.073 15.979,10.010 15.979,10.010 C15.979,10.010 18.063,10.000 18.063,10.000 C18.063,10.000 18.000,4.000 18.000,4.000 C18.000,4.000 20.979,3.979 20.979,3.979 C20.979,3.979 20.990,10.594 20.990,10.594 C20.990,10.594 20.974,17.324 20.974,17.324 C20.974,17.324 23.010,16.167 23.010,16.167 C23.010,16.167 23.000,22.010 23.000,22.010 C23.000,22.010 -0.010,22.000 -0.010,22.000 Z" id="path-1" class="cls-2" fill-rule="evenodd"/>
</svg>
