<svg
 xmlns="http://www.w3.org/2000/svg"
 xmlns:xlink="http://www.w3.org/1999/xlink"
 width="23" height="21">
<path fill-rule="evenodd"  fill="rgb(52, 154, 0)"
 d="M12.950,17.943 L8.012,20.943 L4.919,20.911 L0.981,16.943 L0.981,14.036 L4.044,9.036 L15.044,0.036 C15.044,0.036 16.856,-0.026 16.981,0.036 C17.106,0.099 21.856,4.943 21.856,4.943 L22.044,6.974 L12.950,17.943 ZM2.137,14.161 L2.137,16.818 L5.544,19.974 L7.950,19.974 L11.669,17.630 L4.419,10.474 L2.137,14.161 ZM20.887,5.911 L16.575,1.505 L15.075,1.505 L4.731,10.130 L12.012,17.349 L21.012,6.974 L20.887,5.911 Z"/>
</svg>