<svg
 xmlns="http://www.w3.org/2000/svg"
 xmlns:xlink="http://www.w3.org/1999/xlink"
 width="19" height="18">
<path fill-rule="evenodd"  fill="rgb(52, 154, 0)"
 d="M13.507,3.790 C13.507,3.790 14.354,3.056 14.553,2.579 C14.753,2.103 14.516,0.891 15.620,0.474 C16.193,0.257 17.300,0.261 17.850,0.781 C18.471,1.368 18.877,2.365 18.794,2.749 C18.635,3.474 18.102,4.142 17.465,4.376 C16.951,4.566 16.507,4.204 16.003,4.556 C15.755,4.729 15.024,5.376 15.049,5.540 C15.075,5.704 17.048,7.874 17.048,7.874 L16.141,9.951 L14.852,8.581 C14.852,8.581 13.333,9.915 11.734,11.541 C10.271,13.029 8.586,14.437 8.089,14.677 C7.079,15.165 6.610,14.837 5.907,15.064 C5.204,15.290 3.212,17.720 3.212,17.720 L2.458,16.951 C2.458,16.951 4.692,14.638 5.057,14.255 C5.829,13.447 7.152,13.888 7.557,13.632 C8.826,12.830 9.511,11.974 10.667,10.846 C12.600,8.957 14.038,7.636 14.038,7.636 L12.575,6.033 L11.298,4.609 C11.298,4.609 9.218,6.340 7.296,8.137 C5.829,9.509 4.401,10.868 4.368,11.833 C4.350,12.369 4.766,13.013 4.262,13.712 C4.080,13.965 1.790,16.417 1.790,16.417 L0.962,15.501 C0.962,15.501 2.346,14.306 3.237,13.158 C3.620,12.664 3.135,12.765 3.520,11.224 C3.799,10.109 5.151,8.634 6.578,7.287 C8.541,5.436 10.325,3.730 10.325,3.730 L9.169,2.398 L11.151,1.175 L13.507,3.790 Z"/>
</svg>