<svg xmlns="http://www.w3.org/2000/svg" xmlns:xlink="http://www.w3.org/1999/xlink" preserveAspectRatio="xMidYMid" width="19" height="23" viewBox="0 0 19 23">
  <defs>
    <style>

      .cls-2 {
        fill: #339900;
      }
    </style>
  </defs>
  <path d="M16.813,14.073 C13.231,19.439 9.313,22.573 9.313,22.573 C9.313,22.573 9.125,22.573 9.125,22.573 C9.125,22.573 5.207,19.439 1.625,14.073 C0.607,12.548 -0.792,8.573 0.542,5.156 C1.585,2.483 4.542,0.073 8.708,-0.010 C8.625,-0.010 9.813,-0.010 9.729,-0.010 C13.896,0.073 16.853,2.483 17.896,5.156 C19.229,8.573 17.830,12.548 16.813,14.073 ZM16.852,5.612 C15.934,3.260 13.333,1.140 9.668,1.067 C9.741,1.067 8.696,1.067 8.770,1.067 C5.104,1.140 2.503,3.260 1.585,5.612 C0.412,8.617 1.643,12.114 2.538,13.456 C5.689,18.177 9.136,20.933 9.136,20.933 C9.136,20.933 9.301,20.933 9.301,20.933 C9.301,20.933 12.748,18.177 15.899,13.456 C16.794,12.114 18.025,8.617 16.852,5.612 ZM9.313,11.750 C7.362,11.750 5.781,10.169 5.781,8.219 C5.781,6.268 7.362,4.688 9.313,4.688 C11.263,4.688 12.844,6.268 12.844,8.219 C12.844,10.169 11.263,11.750 9.313,11.750 Z" id="path-1" class="cls-2" fill-rule="evenodd"/>
</svg>
