<svg xmlns="http://www.w3.org/2000/svg" width="25.188" height="28" viewBox="0 0 25.188 28">
  <defs>
    <style>
      .cls-1 {
        fill: #349a00;
        fill-rule: evenodd;
        opacity: 0.5;
      }
    </style>
  </defs>
  <path id="hand-half.svg" class="cls-1" d="M11.188,506l-0.062,3.125,11.563-.188,0.188-2.625,0.938-3.625,1.313-7.374,0.75-6.063s-0.387-3-1.312-3.875c-1.09-1.032-1.212,2.185-1.312,3.687-0.034.5-.438,1.563-0.5,2.063s-0.875,3.312-1,3-0.365-2.9-.437-3.625c-0.125-1.25-.16-3.124-0.187-4.5a9.217,9.217,0,0,0-.437-3.313c-0.5-.812-2.062-0.5-2.375.563-0.134.457,0,3.875-.062,5.125s0.006,3.564,0,4c-0.017,1.305-.812.906-1.062,0.375a20.411,20.411,0,0,1-.156-4.281c0-1.108-.156-2.594-0.094-3.907a9.248,9.248,0,0,0-.469-2.875c-0.281-.5-1.781-1-2.219.125a23.074,23.074,0,0,0-.125,3.875v5.188c0,0.5-.437,2.625-0.437,2.625s-0.456-.926-0.687-1.563a14.9,14.9,0,0,1-1-3.125c-0.187-1.195-.812-3.812-0.812-3.812s-0.4-1.689-1.312-1.625c-0.82.057-1.128,1.255-1.123,1.789a30.268,30.268,0,0,0,.5,3.648c0.251,1.188.375,2.751,0.625,4.063a12.07,12.07,0,0,1-.062,3C9.749,496.968,9.625,499,9.625,499a2.725,2.725,0,0,1-3.187-1.438c-0.447-.962-2.625-2.249-3.062-2.375a5.534,5.534,0,0,0-2.062.188A4.1,4.1,0,0,0,.688,497l2.625,1.375a14.6,14.6,0,0,0,1.375,2.312,35.218,35.218,0,0,1,2.125,3.125Z" transform="translate(-0.688 -481.125)"/>
</svg>
