<svg xmlns="http://www.w3.org/2000/svg" xmlns:xlink="http://www.w3.org/1999/xlink" preserveAspectRatio="xMidYMid" width="27" height="29" viewBox="0 0 27 29">
  <defs>
    <style>

      .cls-2 {
        fill: #349a00;
        stroke: #349a00;
        stroke-width: 1px;
        fill-opacity: 0.5;
      }
    </style>
  </defs>
  <path d="M11.000,25.250 C11.000,25.250 10.938,28.375 10.938,28.375 C10.938,28.375 22.500,28.187 22.500,28.187 C22.500,28.187 22.688,25.562 22.688,25.562 C22.688,25.562 23.625,21.937 23.625,21.937 C23.625,21.937 24.937,14.562 24.937,14.562 C24.937,14.562 25.688,8.500 25.688,8.500 C25.688,8.500 25.301,5.501 24.375,4.625 C23.285,3.593 23.164,6.810 23.063,8.312 C23.029,8.811 22.625,9.875 22.563,10.375 C22.500,10.875 21.688,13.687 21.563,13.375 C21.438,13.062 21.198,10.478 21.125,9.750 C21.000,8.500 20.965,6.626 20.937,5.250 C20.920,4.355 20.894,2.578 20.500,1.937 C20.000,1.125 18.438,1.438 18.125,2.500 C17.991,2.957 18.125,6.375 18.063,7.625 C18.000,8.875 18.068,11.189 18.063,11.625 C18.045,12.930 17.000,12.000 17.000,12.000 C17.000,12.000 17.000,9.312 17.000,7.688 C17.000,6.580 16.687,5.125 16.750,3.812 C16.775,3.279 16.125,0.813 16.125,0.813 C16.125,0.813 14.500,-0.063 14.063,1.062 C13.911,1.453 13.937,3.062 13.937,4.937 C13.937,6.511 13.937,9.625 13.937,10.125 C13.937,10.625 13.500,12.750 13.500,12.750 C13.500,12.750 12.936,11.854 12.812,11.187 C12.527,9.646 11.996,9.236 11.813,8.062 C11.625,6.867 11.000,4.250 11.000,4.250 C11.000,4.250 10.602,2.561 9.687,2.625 C8.867,2.682 8.560,3.880 8.564,4.414 C8.571,5.269 8.950,7.530 9.062,8.062 C9.314,9.250 9.437,10.812 9.687,12.125 C9.872,13.096 9.693,13.959 9.625,15.125 C9.561,16.218 9.437,18.250 9.437,18.250 C9.437,18.250 7.207,18.874 6.250,16.812 C5.803,15.850 3.625,14.562 3.188,14.437 C2.750,14.312 1.437,14.500 1.125,14.625 C0.812,14.750 0.500,16.250 0.500,16.250 C0.500,16.250 3.125,17.625 3.125,17.625 C3.125,17.625 4.125,19.625 4.500,19.937 C4.875,20.250 6.625,23.062 6.625,23.062 C6.625,23.062 11.000,25.250 11.000,25.250 Z" id="path-1" class="cls-2" fill-rule="evenodd"/>
</svg>
