<svg
 xmlns="http://www.w3.org/2000/svg"
 xmlns:xlink="http://www.w3.org/1999/xlink"
 width="25" height="16">
<path fill-rule="evenodd"  fill="rgb(51, 153, 0)"
 d="M21.916,3.917 L24.135,3.917 L21.635,8.104 L23.854,8.073 L20.541,16.010 L0.979,15.979 L4.135,11.010 L0.948,10.979 L5.135,6.010 L0.948,6.010 L7.604,0.073 L24.198,0.042 L21.916,3.917 ZM2.791,15.042 L19.916,14.979 L22.323,9.010 C22.323,9.010 22.080,8.991 21.478,9.012 C20.854,9.035 20.271,10.996 19.726,10.998 C15.498,11.014 5.385,11.010 5.385,11.010 L2.791,15.042 ZM2.916,10.104 L19.604,9.979 L22.323,4.979 C22.323,4.979 21.808,4.838 21.402,5.089 C21.039,5.313 20.820,5.933 20.226,5.936 C15.998,5.951 6.635,6.010 6.635,6.010 L2.916,10.104 ZM3.854,5.010 L20.104,5.042 L22.510,1.010 L8.104,1.042 L3.854,5.010 Z"/>
</svg>