<svg
 xmlns="http://www.w3.org/2000/svg"
 xmlns:xlink="http://www.w3.org/1999/xlink"
 width="0.361in" height="0.208in">
<path fill-rule="evenodd"  fill="rgb(51, 153, 0)"
 d="M24.856,5.647 C24.343,5.694 23.517,5.717 22.573,5.725 C22.563,5.157 22.450,4.525 22.280,4.001 C23.495,3.995 24.564,3.984 25.011,4.021 C25.788,4.085 25.496,5.588 24.856,5.647 ZM21.868,7.101 C21.445,7.099 20.949,7.127 20.418,7.173 C20.421,6.729 20.392,6.331 20.344,5.962 C20.339,5.212 19.929,4.481 19.602,3.987 C19.641,3.988 19.678,3.990 19.718,3.991 C18.818,2.503 17.205,2.220 15.788,2.260 C15.329,1.819 14.572,1.257 13.903,0.788 C15.695,0.133 17.933,0.516 19.480,1.423 C20.132,1.805 20.627,2.387 21.002,3.073 C21.037,3.155 21.065,3.230 21.120,3.339 C21.528,4.145 21.722,5.092 21.814,5.729 C21.811,5.729 21.809,5.729 21.806,5.729 C21.855,6.156 21.882,6.587 21.872,7.015 C21.871,7.046 21.869,7.071 21.868,7.101 ZM17.209,3.801 C17.534,3.879 18.061,3.925 18.677,3.955 C18.899,4.439 19.260,5.149 19.510,5.712 C18.695,5.701 17.907,5.687 17.264,5.672 C16.148,5.645 15.029,5.193 14.019,4.731 C13.467,4.478 13.057,4.090 12.642,3.697 C12.631,3.710 12.621,3.723 12.610,3.736 C12.249,3.396 11.817,3.015 11.387,2.745 C11.391,2.740 11.395,2.737 11.400,2.732 C11.284,2.668 11.161,2.609 11.032,2.556 C10.930,2.509 10.832,2.478 10.734,2.454 C10.370,2.339 9.956,2.267 9.446,2.276 C8.156,2.297 6.982,3.079 6.239,4.375 C5.965,4.373 5.082,4.355 4.389,4.368 C4.925,2.447 5.945,1.568 7.384,0.713 C7.928,0.390 10.663,0.147 12.944,1.256 C13.836,1.779 14.914,2.604 15.268,2.880 C15.728,3.275 16.115,3.540 17.209,3.801 ZM5.895,5.076 C5.890,5.089 5.883,5.100 5.878,5.113 C7.655,5.126 9.285,4.970 10.186,3.884 C10.313,3.730 10.486,3.567 10.674,3.395 C11.112,3.666 11.652,4.019 12.098,4.358 C11.282,5.403 10.563,6.475 9.276,6.595 C8.101,6.705 6.996,6.746 5.890,6.759 C5.597,6.759 4.666,6.761 4.008,6.778 C4.008,6.773 4.009,6.766 4.009,6.761 C3.342,6.752 2.663,6.738 1.952,6.722 C0.495,6.690 0.302,5.227 2.103,5.097 C2.591,5.061 3.103,5.060 3.621,5.067 C3.875,5.171 5.224,5.124 5.895,5.076 ZM3.408,9.006 C3.504,9.542 3.628,10.189 3.744,10.729 C2.452,10.735 1.294,10.749 0.824,10.710 C0.048,10.646 0.339,9.143 0.980,9.084 C1.518,9.034 2.404,9.013 3.408,9.006 ZM5.423,7.426 C5.422,7.450 5.417,7.472 5.416,7.497 C5.413,7.729 5.422,7.943 5.434,8.154 C5.434,8.155 5.431,8.156 5.431,8.158 C5.431,8.160 5.434,8.168 5.434,8.170 C5.451,8.467 5.477,8.749 5.519,9.008 C5.574,9.009 5.625,9.010 5.679,9.010 C5.860,9.557 6.108,10.244 6.325,10.746 C6.254,10.744 6.189,10.742 6.118,10.740 C7.027,12.244 8.664,12.516 10.091,12.469 C10.445,12.902 11.037,13.585 11.554,14.064 C9.833,14.541 7.795,14.152 6.355,13.308 C5.423,12.761 4.794,11.821 4.412,10.726 C4.393,10.726 4.376,10.726 4.356,10.726 C4.208,10.160 4.095,9.402 4.021,8.845 C3.983,8.470 3.954,8.092 3.964,7.716 C3.965,7.640 3.971,7.576 3.974,7.503 C4.421,7.507 4.970,7.480 5.423,7.426 ZM8.627,10.930 C8.297,10.851 7.758,10.804 7.130,10.775 C6.976,10.341 6.758,9.630 6.559,9.022 C7.288,9.033 7.991,9.046 8.572,9.059 C9.687,9.086 10.806,9.538 11.816,10.000 C12.270,10.208 12.622,10.512 12.966,10.830 C13.356,11.302 13.972,11.702 14.486,11.952 C14.469,11.969 14.453,11.982 14.435,11.999 C14.936,12.276 15.540,12.470 16.390,12.455 C17.550,12.436 18.617,11.803 19.362,10.734 C19.908,10.792 20.734,10.776 21.325,10.746 C20.764,12.401 19.790,13.222 18.452,14.018 C17.928,14.329 15.377,14.553 13.154,13.582 C12.576,13.216 11.315,12.399 10.784,12.038 C10.210,11.536 9.884,11.230 8.627,10.930 ZM19.871,9.804 C19.899,9.741 19.932,9.684 19.957,9.618 C18.181,9.605 16.550,9.761 15.650,10.847 C15.510,11.016 15.323,11.193 15.112,11.385 C14.735,11.126 14.246,10.661 13.820,10.268 C14.603,9.257 15.316,8.252 16.559,8.136 C17.645,8.034 18.670,7.995 19.692,7.978 C19.713,7.986 19.735,7.997 19.756,8.002 C20.035,8.073 21.048,8.023 21.827,7.968 C21.827,7.969 21.827,7.970 21.827,7.970 C22.494,7.979 23.173,7.993 23.883,8.009 C25.340,8.041 25.533,9.504 23.733,9.634 C23.057,9.683 22.340,9.674 21.617,9.655 C21.606,9.713 21.591,9.759 21.579,9.815 C21.087,9.776 20.364,9.791 19.871,9.804 Z"/>
</svg>