<svg xmlns="http://www.w3.org/2000/svg" width="19.781" height="23.688" viewBox="0 0 19.781 23.688">
  <defs>
    <style>
      .cls-1 {
        fill: #390;
        fill-rule: evenodd;
      }
    </style>
  </defs>
  <path id="newitem.svg" class="cls-1" d="M8.9,38.938c3.687-.187,13.229-3.511,16.042-5.167,0.688,4.969-.687,15.479-2.312,19.792C19,56,10.229,57.875,5.354,57.375,6.667,51.688,8.958,43.625,8.9,38.938Zm0.948,0.969a56.145,56.145,0,0,0,6.938-1.437,62.732,62.732,0,0,0,7.25-3.031s0.063,5.25-.281,8.375a81.268,81.268,0,0,1-1.906,8.906,42.3,42.3,0,0,1-6.813,2.594,52.34,52.34,0,0,1-8.438,1.125s1.094-4.219,1.656-6.469,0.977-4.3,1.281-6.094A27.811,27.811,0,0,0,9.844,39.906ZM21,41v5H16v5H11V46H5.938V41H11V36h5v5m4,1v3H15v5H12V45H6.938V42H12V37h3v5" transform="translate(-5.344 -33.781)"/>
</svg>
