<svg xmlns="http://www.w3.org/2000/svg" xmlns:xlink="http://www.w3.org/1999/xlink" preserveAspectRatio="xMidYMid" width="26" height="27" viewBox="0 0 26 27">
  <defs>
    <style>

      .cls-2 {
        fill: #349a00;
        opacity: 0.5;
      }
    </style>
  </defs>
  <path d="M19.563,-0.000 C19.563,-0.000 25.188,5.625 25.188,5.625 C25.188,5.625 17.674,12.767 17.674,12.767 C16.460,14.049 18.771,16.357 15.937,19.500 C14.257,21.364 9.194,21.332 6.536,23.610 C4.618,25.253 2.927,26.404 2.423,26.866 C1.806,26.281 1.406,25.812 1.406,25.812 C1.406,25.812 8.346,18.070 8.907,17.550 C9.270,17.214 9.835,17.831 10.581,17.167 C11.013,16.782 11.276,16.012 10.721,15.487 C10.343,15.130 9.517,15.082 9.049,15.594 C8.367,16.339 9.132,16.908 8.625,17.317 C8.031,17.797 1.031,25.469 1.031,25.469 C1.031,25.469 -0.000,24.250 -0.000,24.250 C-0.000,24.250 2.294,21.354 2.938,20.625 C5.312,17.937 3.308,13.615 6.781,9.844 C8.969,7.469 11.937,9.250 12.562,8.562 C13.187,7.875 19.563,-0.000 19.563,-0.000 Z" id="path-1" class="cls-2" fill-rule="evenodd"/>
</svg>
