<svg xmlns="http://www.w3.org/2000/svg" xmlns:xlink="http://www.w3.org/1999/xlink" preserveAspectRatio="xMidYMid" width="26" height="27" viewBox="0 0 26 27">
  <defs>
    <style>

      .cls-2 {
        fill: #349a00;
      }
    </style>
  </defs>
  <path d="M17.674,12.767 C16.460,14.049 18.584,16.826 15.937,19.500 C14.172,21.284 9.194,21.332 6.536,23.610 C4.618,25.253 2.927,26.404 2.423,26.866 C1.806,26.281 1.406,25.812 1.406,25.812 C1.406,25.812 8.159,18.414 8.720,17.894 C9.082,17.558 9.835,17.831 10.581,17.167 C11.013,16.782 11.276,16.012 10.721,15.487 C10.343,15.130 9.517,15.082 9.049,15.594 C8.367,16.339 8.882,17.127 8.438,17.567 C7.895,18.105 1.031,25.469 1.031,25.469 C1.031,25.469 -0.000,24.250 -0.000,24.250 C-0.000,24.250 2.294,21.354 2.938,20.625 C5.312,17.937 3.308,13.615 6.781,9.844 C8.969,7.469 11.937,9.250 12.562,8.562 C13.187,7.875 19.563,-0.000 19.563,-0.000 C19.563,-0.000 25.188,5.625 25.188,5.625 C25.188,5.625 17.674,12.767 17.674,12.767 ZM12.534,9.728 C10.940,10.142 9.060,8.767 7.376,10.704 C4.646,13.845 6.417,17.932 4.260,20.373 C3.675,21.035 1.529,23.478 1.529,23.478 C1.529,23.478 1.778,23.710 1.778,23.710 C1.778,23.710 7.293,17.897 7.645,17.337 C7.960,16.836 7.761,15.706 8.655,14.834 C9.248,14.256 10.179,13.962 11.361,14.956 C12.215,15.673 12.064,16.695 11.328,17.700 C10.792,18.433 9.324,18.274 8.995,18.579 C8.485,19.052 2.869,25.085 2.869,25.085 C2.869,25.085 3.200,25.354 3.136,25.354 C3.594,24.935 5.036,23.889 6.778,22.397 C9.193,20.328 13.508,20.417 15.194,18.882 C17.299,16.965 15.865,14.547 16.428,12.954 C16.990,11.360 23.565,5.497 23.565,5.497 C23.565,5.497 19.612,1.700 19.612,1.700 C19.612,1.700 13.544,9.465 12.534,9.728 Z" id="path-1" class="cls-2" fill-rule="evenodd"/>
</svg>
