<svg xmlns="http://www.w3.org/2000/svg" xmlns:xlink="http://www.w3.org/1999/xlink" preserveAspectRatio="xMidYMid" width="20" height="20" viewBox="0 0 20 20">
  <defs>
    <style>

      .cls-2 {
        fill: #339900;
        fill-opacity: 0.5;
      }
    </style>
  </defs>
  <path d="M8.906,16.125 C8.906,16.125 7.469,14.688 7.469,14.688 C7.469,14.688 18.406,3.656 18.406,3.656 C18.406,3.656 19.938,5.062 19.938,5.062 C19.938,5.062 8.906,16.125 8.906,16.125 ZM4.062,11.031 C4.062,11.031 15.000,0.000 15.000,0.000 C15.000,0.000 16.531,1.406 16.531,1.406 C16.531,1.406 5.500,12.469 5.500,12.469 C5.500,12.469 4.062,11.031 4.062,11.031 ZM6.875,16.937 C6.875,16.937 3.719,16.937 3.719,16.937 C3.719,16.937 -0.000,19.812 -0.000,19.812 C-0.000,19.812 2.969,16.125 2.969,16.125 C2.969,16.125 2.969,12.969 2.969,12.969 C2.969,12.969 6.875,16.937 6.875,16.937 Z" id="path-1" class="cls-2" fill-rule="evenodd"/>
</svg>
