<svg xmlns="http://www.w3.org/2000/svg" xmlns:xlink="http://www.w3.org/1999/xlink" preserveAspectRatio="xMidYMid" width="20" height="20" viewBox="0 0 20 20">
  <defs>
    <style>

      .cls-2 {
        fill: #339900;
      }
    </style>
  </defs>
  <path d="M8.000,18.000 C8.000,18.000 4.000,18.000 4.000,18.000 C4.000,18.000 0.000,20.000 0.000,20.000 C0.000,20.000 2.000,15.000 2.000,15.000 C2.000,15.000 2.000,12.000 2.000,12.000 C2.000,12.000 14.031,0.000 14.031,0.000 C14.031,0.000 16.000,0.000 16.000,0.000 C16.000,0.000 20.000,4.000 20.000,4.000 C20.000,4.000 20.000,5.969 20.000,5.969 C20.000,5.969 8.000,18.000 8.000,18.000 ZM3.000,12.531 C3.000,12.531 3.000,17.000 3.000,17.000 C3.000,17.000 7.375,17.031 7.375,17.031 C7.375,17.031 8.131,16.226 8.131,16.226 C8.131,16.226 3.876,11.807 3.876,11.807 C3.876,11.807 3.000,12.531 3.000,12.531 ZM14.969,1.000 C14.969,1.000 4.610,11.080 4.610,11.080 C4.610,11.080 5.607,12.085 5.607,12.085 C5.607,12.085 15.939,1.899 15.939,1.899 C15.939,1.899 14.969,1.000 14.969,1.000 ZM5.917,12.397 C5.917,12.397 7.583,14.075 7.583,14.075 C7.583,14.075 17.967,3.780 17.967,3.780 C17.967,3.780 16.201,2.142 16.201,2.142 C16.201,2.142 5.917,12.397 5.917,12.397 ZM18.308,4.096 C18.308,4.096 7.925,14.420 7.925,14.420 C7.925,14.420 8.876,15.378 8.876,15.378 C8.876,15.378 19.250,4.969 19.250,4.969 C19.250,4.969 18.308,4.096 18.308,4.096 Z" id="path-1" class="cls-2" fill-rule="evenodd"/>
</svg>
