<svg
 xmlns="http://www.w3.org/2000/svg"
 xmlns:xlink="http://www.w3.org/1999/xlink"
 width="17" height="21">
<path fill-rule="evenodd"  opacity="0.502" fill="rgb(51, 153, 0)"
 d="M17.004,14.246 L17.004,15.681 L15.339,16.642 C14.831,16.332 13.209,15.497 11.646,16.426 C9.909,17.459 9.826,19.231 9.848,19.812 L8.502,20.590 L6.667,19.530 C6.658,18.818 6.472,17.192 5.006,16.370 C3.379,15.459 1.905,16.085 1.299,16.431 L-0.001,15.681 C-0.001,15.681 -0.001,15.109 -0.001,14.241 C0.460,14.000 2.118,13.001 2.094,11.116 C2.067,9.019 0.452,8.061 -0.001,7.832 C-0.001,7.589 -0.001,7.356 -0.001,7.148 C-0.001,6.367 -0.001,5.862 -0.001,5.862 L1.608,4.933 C2.019,5.197 3.743,6.175 5.385,5.199 C7.213,4.113 7.211,2.190 7.181,1.716 L8.502,0.953 L9.867,1.742 C9.845,2.249 9.872,4.203 11.526,5.130 C13.365,6.160 15.013,5.224 15.426,4.951 L17.004,5.862 L17.004,7.868 C16.514,8.130 14.913,9.123 14.937,10.977 C14.964,13.040 16.522,13.998 17.004,14.246 ZM8.344,7.366 C6.463,7.366 4.938,8.891 4.938,10.773 C4.938,12.654 6.463,14.179 8.344,14.179 C10.225,14.179 11.750,12.654 11.750,10.773 C11.750,8.891 10.225,7.366 8.344,7.366 Z"/>
</svg>